<mxfile host="app.diagrams.net" agent="Mozilla/5.0 (Windows NT 10.0; Win64; x64) AppleWebKit/537.36 (KHTML, like Gecko) Chrome/137.0.0.0 Safari/537.36" version="27.1.5">
  <diagram name="PÃ¡gina-1" id="s57OJqEq9wZA8JQZGDrs">
    <mxGraphModel dx="866" dy="473" grid="1" gridSize="10" guides="1" tooltips="1" connect="1" arrows="1" fold="1" page="1" pageScale="1" pageWidth="827" pageHeight="1169" math="0" shadow="0">
      <root>
        <mxCell id="0" />
        <mxCell id="1" parent="0" />
        <mxCell id="z5VQ3wt5WyvtU_yLzv60-3" value="" style="edgeStyle=orthogonalEdgeStyle;rounded=0;orthogonalLoop=1;jettySize=auto;html=1;labelBackgroundColor=none;strokeColor=#028090;fontColor=default;" parent="1" source="z5VQ3wt5WyvtU_yLzv60-1" target="z5VQ3wt5WyvtU_yLzv60-2" edge="1">
          <mxGeometry relative="1" as="geometry" />
        </mxCell>
        <mxCell id="z5VQ3wt5WyvtU_yLzv60-1" value="Inicio" style="ellipse;whiteSpace=wrap;html=1;fillColor=#F45B69;strokeColor=#028090;labelBackgroundColor=none;fontColor=#E4FDE1;" parent="1" vertex="1">
          <mxGeometry x="310" y="10" width="170" height="60" as="geometry" />
        </mxCell>
        <mxCell id="z5VQ3wt5WyvtU_yLzv60-5" value="" style="edgeStyle=orthogonalEdgeStyle;rounded=0;orthogonalLoop=1;jettySize=auto;html=1;labelBackgroundColor=none;strokeColor=#028090;fontColor=default;" parent="1" source="z5VQ3wt5WyvtU_yLzv60-2" target="z5VQ3wt5WyvtU_yLzv60-4" edge="1">
          <mxGeometry relative="1" as="geometry" />
        </mxCell>
        <mxCell id="z5VQ3wt5WyvtU_yLzv60-2" value="n1=&lt;div&gt;n2=&lt;/div&gt;" style="shape=parallelogram;perimeter=parallelogramPerimeter;whiteSpace=wrap;html=1;fixedSize=1;fillColor=#F45B69;strokeColor=#028090;labelBackgroundColor=none;fontColor=#E4FDE1;" parent="1" vertex="1">
          <mxGeometry x="310" y="150" width="170" height="60" as="geometry" />
        </mxCell>
        <mxCell id="z5VQ3wt5WyvtU_yLzv60-7" value="" style="edgeStyle=orthogonalEdgeStyle;rounded=0;orthogonalLoop=1;jettySize=auto;html=1;labelBackgroundColor=none;strokeColor=#028090;fontColor=default;" parent="1" source="z5VQ3wt5WyvtU_yLzv60-4" target="z5VQ3wt5WyvtU_yLzv60-6" edge="1">
          <mxGeometry relative="1" as="geometry" />
        </mxCell>
        <mxCell id="z5VQ3wt5WyvtU_yLzv60-11" value="" style="edgeStyle=orthogonalEdgeStyle;rounded=0;orthogonalLoop=1;jettySize=auto;html=1;labelBackgroundColor=none;strokeColor=#028090;fontColor=default;" parent="1" source="z5VQ3wt5WyvtU_yLzv60-4" target="z5VQ3wt5WyvtU_yLzv60-10" edge="1">
          <mxGeometry relative="1" as="geometry" />
        </mxCell>
        <mxCell id="z5VQ3wt5WyvtU_yLzv60-15" value="" style="edgeStyle=orthogonalEdgeStyle;rounded=0;orthogonalLoop=1;jettySize=auto;html=1;labelBackgroundColor=none;strokeColor=#028090;fontColor=default;" parent="1" source="z5VQ3wt5WyvtU_yLzv60-4" target="z5VQ3wt5WyvtU_yLzv60-14" edge="1">
          <mxGeometry relative="1" as="geometry" />
        </mxCell>
        <mxCell id="z5VQ3wt5WyvtU_yLzv60-4" value="n1==n2" style="rhombus;whiteSpace=wrap;html=1;fillColor=#F45B69;strokeColor=#028090;labelBackgroundColor=none;fontColor=#E4FDE1;" parent="1" vertex="1">
          <mxGeometry x="320" y="280" width="150" height="80" as="geometry" />
        </mxCell>
        <mxCell id="z5VQ3wt5WyvtU_yLzv60-17" value="" style="edgeStyle=orthogonalEdgeStyle;rounded=0;orthogonalLoop=1;jettySize=auto;html=1;labelBackgroundColor=none;strokeColor=#028090;fontColor=default;" parent="1" source="z5VQ3wt5WyvtU_yLzv60-6" target="z5VQ3wt5WyvtU_yLzv60-16" edge="1">
          <mxGeometry relative="1" as="geometry" />
        </mxCell>
        <mxCell id="z5VQ3wt5WyvtU_yLzv60-6" value="n2&amp;gt;n1" style="rhombus;whiteSpace=wrap;html=1;fillColor=#F45B69;strokeColor=#028090;labelBackgroundColor=none;fontColor=#E4FDE1;" parent="1" vertex="1">
          <mxGeometry x="560" y="280" width="160" height="80" as="geometry" />
        </mxCell>
        <mxCell id="z5VQ3wt5WyvtU_yLzv60-13" value="" style="edgeStyle=orthogonalEdgeStyle;rounded=0;orthogonalLoop=1;jettySize=auto;html=1;labelBackgroundColor=none;strokeColor=#028090;fontColor=default;" parent="1" source="z5VQ3wt5WyvtU_yLzv60-10" target="z5VQ3wt5WyvtU_yLzv60-12" edge="1">
          <mxGeometry relative="1" as="geometry" />
        </mxCell>
        <mxCell id="z5VQ3wt5WyvtU_yLzv60-10" value="n1&amp;gt;n2" style="rhombus;whiteSpace=wrap;html=1;fillColor=#F45B69;strokeColor=#028090;labelBackgroundColor=none;fontColor=#E4FDE1;" parent="1" vertex="1">
          <mxGeometry x="90" y="280" width="150" height="80" as="geometry" />
        </mxCell>
        <mxCell id="z5VQ3wt5WyvtU_yLzv60-12" value="El primer numero es mayor" style="shape=document;whiteSpace=wrap;html=1;boundedLbl=1;fillColor=#F45B69;strokeColor=#028090;size=0.375;labelBackgroundColor=none;fontColor=#E4FDE1;" parent="1" vertex="1">
          <mxGeometry x="105" y="440" width="120" height="80" as="geometry" />
        </mxCell>
        <mxCell id="z5VQ3wt5WyvtU_yLzv60-14" value="Los dos numeros son iguales" style="shape=document;whiteSpace=wrap;html=1;boundedLbl=1;fillColor=#F45B69;strokeColor=#028090;size=0.375;labelBackgroundColor=none;fontColor=#E4FDE1;" parent="1" vertex="1">
          <mxGeometry x="335" y="440" width="120" height="80" as="geometry" />
        </mxCell>
        <mxCell id="z5VQ3wt5WyvtU_yLzv60-16" value="El segundo numero es mayor" style="shape=document;whiteSpace=wrap;html=1;boundedLbl=1;fillColor=#F45B69;strokeColor=#028090;size=0.5;labelBackgroundColor=none;fontColor=#E4FDE1;" parent="1" vertex="1">
          <mxGeometry x="580" y="440" width="120" height="80" as="geometry" />
        </mxCell>
        <mxCell id="z5VQ3wt5WyvtU_yLzv60-20" style="edgeStyle=orthogonalEdgeStyle;rounded=0;orthogonalLoop=1;jettySize=auto;html=1;entryX=0.9;entryY=0.3;entryDx=0;entryDy=0;entryPerimeter=0;labelBackgroundColor=none;strokeColor=#028090;fontColor=default;" parent="1" edge="1">
          <mxGeometry relative="1" as="geometry">
            <mxPoint x="395" y="640" as="targetPoint" />
            <mxPoint x="395" y="640" as="sourcePoint" />
            <Array as="points" />
          </mxGeometry>
        </mxCell>
        <mxCell id="z5VQ3wt5WyvtU_yLzv60-28" value="" style="endArrow=classic;html=1;rounded=0;exitX=0.525;exitY=0.763;exitDx=0;exitDy=0;exitPerimeter=0;labelBackgroundColor=none;strokeColor=#028090;fontColor=default;" parent="1" edge="1">
          <mxGeometry width="50" height="50" relative="1" as="geometry">
            <mxPoint x="400" y="501.03999999999996" as="sourcePoint" />
            <mxPoint x="400" y="680" as="targetPoint" />
          </mxGeometry>
        </mxCell>
        <mxCell id="z5VQ3wt5WyvtU_yLzv60-29" value="" style="endArrow=classic;html=1;rounded=0;exitX=0.875;exitY=0.75;exitDx=0;exitDy=0;exitPerimeter=0;labelBackgroundColor=none;strokeColor=#028090;fontColor=default;" parent="1" edge="1">
          <mxGeometry width="50" height="50" relative="1" as="geometry">
            <mxPoint x="160" y="510" as="sourcePoint" />
            <mxPoint x="160" y="640" as="targetPoint" />
          </mxGeometry>
        </mxCell>
        <mxCell id="z5VQ3wt5WyvtU_yLzv60-30" value="" style="endArrow=classic;html=1;rounded=0;exitX=0.508;exitY=0.788;exitDx=0;exitDy=0;exitPerimeter=0;labelBackgroundColor=none;strokeColor=#028090;fontColor=default;" parent="1" source="z5VQ3wt5WyvtU_yLzv60-16" edge="1">
          <mxGeometry width="50" height="50" relative="1" as="geometry">
            <mxPoint x="650" y="530" as="sourcePoint" />
            <mxPoint x="641.5" y="640" as="targetPoint" />
          </mxGeometry>
        </mxCell>
        <mxCell id="z5VQ3wt5WyvtU_yLzv60-31" value="" style="endArrow=none;html=1;rounded=0;labelBackgroundColor=none;strokeColor=#028090;fontColor=default;" parent="1" edge="1">
          <mxGeometry width="50" height="50" relative="1" as="geometry">
            <mxPoint x="160" y="640" as="sourcePoint" />
            <mxPoint x="640" y="640" as="targetPoint" />
          </mxGeometry>
        </mxCell>
        <mxCell id="z5VQ3wt5WyvtU_yLzv60-32" value="Fin" style="ellipse;whiteSpace=wrap;html=1;fillColor=#F45B69;strokeColor=#028090;labelBackgroundColor=none;fontColor=#E4FDE1;" parent="1" vertex="1">
          <mxGeometry x="320" y="680" width="160" height="50" as="geometry" />
        </mxCell>
      </root>
    </mxGraphModel>
  </diagram>
</mxfile>
